<?xml version="1.0" encoding="utf-8"?>
<svg viewBox="42.801 76.203 392.905 72.478" xmlns="http://www.w3.org/2000/svg">
  <defs>
    <clipPath clipPathUnits="userSpaceOnUse" id="clipPath41448">
      <path id="path41450" style="fill:#ff0000;fill-opacity:1;fill-rule:nonzero;stroke:none" d="m 131.37305,7 v 58.5 h 123.77734 c -0.60443,-0.215178 -1.2072,-0.438135 -1.80664,-0.667969 -5.83577,-2.2375 -9.32925,-5.543864 -10.88477,-8.923828 l -2.36914,5.160156 c -5.31359,0.18756 -10.67996,1.328447 -15.9414,0.5625 -1.31335,-0.191194 -1.66953,-2.076853 -2.33594,-3.224609 -0.10657,-0.18354 -0.19592,-0.372912 -0.28711,-0.5625 -1.61199,0.08955 -2.25053,-0.896815 -1.22656,-3.734375 -0.21833,-0.794691 -0.45313,-1.583447 -0.79297,-2.330078 -0.13227,-0.543219 -0.27323,-1.084798 -0.41016,-1.626953 -1.21161,0.09601 -2.36852,0.158321 -3.95898,0.09375 -1.24465,-0.05053 -2.13884,-0.08315 -3.00781,-0.246094 0.41183,0.184259 0.81704,0.378459 1.20117,0.599609 0.18214,0.104861 -0.45139,0.02946 -0.62305,-0.0918 -0.31303,-0.221111 -0.65669,-0.414432 -0.99609,-0.611328 -0.60146,-0.147615 -1.21205,-0.34978 -1.94727,-0.720703 -0.19125,-0.09649 -0.34259,-0.255889 -0.50976,-0.390625 -0.89957,-0.401377 -1.76178,-0.85092 -2.47852,-1.484375 -0.12338,0.444121 -0.24648,0.888354 -0.37109,1.332031 -0.11377,-0.041 -0.19692,-0.05513 -0.29688,-0.08398 0.009,0.282421 0.0119,0.451724 0.0488,1.185547 -0.0257,0.560381 -0.0159,1.124125 -0.0781,1.681641 -0.0397,0.355831 -0.1699,0.986268 -0.37109,1.582031 -0.003,0.224452 -0.0546,0.403675 -0.19336,0.501953 -0.20965,0.472984 -0.46975,0.853092 -0.77344,0.933594 -0.11695,0.031 -0.21929,0.04774 -0.32031,0.06055 -1.1e-4,0.0072 -0.002,0.01429 -0.002,0.02148 0.0357,1.054017 0.22593,0.853832 -1.25977,0.759766 -0.66061,0.343066 -0.84707,0.332351 -0.89062,-0.0332 -0.0111,-1.02e-4 -0.0181,8.1e-5 -0.0293,0 -0.009,-7.1e-5 -0.26331,-0.655124 -0.36523,-0.921876 -0.42531,-1.665143 -0.31531,-3.381658 -0.22071,-5.078124 0.0205,-1.162915 -0.0346,-2.325451 -0.0195,-3.488282 0.35119,-0.644448 0.52225,-0.977612 0.60157,-1.136718 -0.0352,0.09853 -0.004,0.130224 0.30078,-0.244141 -0.1747,-0.06884 -0.30212,-0.115493 -0.54688,-0.212891 -0.17246,-0.06861 -0.10665,-0.355514 -0.16016,-0.533203 0.0372,-0.347461 0.059,-0.697471 0.11133,-1.042969 0.19548,-1.290475 0.77898,-2.497996 1.1211,-3.75 0.004,-0.01629 0.009,-0.03831 0.0137,-0.05469 0.1419,-0.849221 0.31285,-1.609634 0.52734,-2.375 2.3e-4,-0.378911 -0.002,-0.757855 0.004,-1.136719 -0.0191,-0.344781 -0.0284,-0.707901 -0.0547,-1.318359 0.17844,-0.962279 0.20231,-1.970245 0.4668,-2.90625 -0.0146,-0.545652 -0.0237,-1.090783 -0.0293,-1.636719 -0.003,-0.2554 -0.0637,-0.519491 0.006,-0.765625 0.096,-0.346337 0.3168,-0.64586 0.47461,-0.96875 0.18484,-0.04334 0.36987,-0.08568 0.55469,-0.128906 -0.0376,-0.110728 -0.0758,-0.221263 -0.11328,-0.332031 0.0473,0.10957 0.1044,0.214048 0.15429,0.322265 0.14914,-0.03488 0.29811,-0.07049 0.44727,-0.105469 0.0349,-0.18657 0.10376,-0.357219 0.24219,-0.492187 0.0144,-0.01402 0.0319,-0.02717 0.0469,-0.04102 0.0296,-0.218538 0.0688,-0.427728 0.11524,-0.621093 3.3e-4,-0.01369 0.002,-0.02733 0.002,-0.04102 -0.19422,-0.324519 -0.38838,-0.649303 -0.57422,-0.978516 -1.25812,-0.213538 -1.66154,-0.607553 -0.7168,-1.289062 -0.0536,-0.09863 -0.11038,-0.19417 -0.16406,-0.292969 -0.38481,-0.669215 -0.80184,-1.321374 -1.1582,-2.005859 0.0437,0.237546 0.086,0.475024 0.12695,0.71289 0.21639,0.771503 0.41765,1.551059 0.63086,2.324219 -0.17146,-0.506645 -0.34417,-1.012886 -0.51562,-1.519531 0.0343,0.249729 0.0762,0.498956 0.0977,0.75 0.0359,0.420901 -0.27417,-0.799282 -0.4043,-1.201172 -0.11454,-0.353741 -0.15904,-0.723488 -0.19531,-1.095703 -0.1326,-0.421877 -0.1854,-0.731009 -0.2793,-1.097657 -0.21475,-0.480851 -0.4231,-0.964548 -0.625,-1.451171 -0.10963,-0.264233 -0.17818,-0.545961 -0.27148,-0.816407 -0.66365,-1.924675 -0.68584,-1.949718 -1.41602,-3.93164 C 199.46496,11.657693 198.96889,9.2009247 198.86523,7 Z m 73.2539,16.964844 c 0.23552,0.433262 0.47549,0.861601 0.7168,1.289062 0.18351,0.03115 0.38886,0.05789 0.60547,0.08203 0.003,-0.119202 0.008,-0.238259 0.0117,-0.357422 -0.16346,-0.600976 -0.19493,-0.956783 0.0215,-0.595704 0.009,-0.201701 0.008,-0.404042 0.0215,-0.605468 0.0142,-0.206567 0.0576,-0.40998 0.084,-0.615235 -0.64917,0.302587 -1.13772,0.569577 -1.46094,0.802735 z m 15.67188,30.144531 c 0.3485,1.268499 0.65794,2.552132 1.22656,3.734375 1.07448,-0.05969 2.58161,-0.598078 4.30859,-1.376953 -1.62116,-1.007492 -3.066,-2.311607 -4.1914,-3.832031 -0.15132,-0.19335 -0.3145,-0.377308 -0.46875,-0.56836 -0.36701,0.764955 -0.66022,1.447774 -0.875,2.042969 z M 244.15039,7 c 1.10425,0.1404785 2.19294,0.319481 3.25,0.5761719 C 248.61096,7.3728787 249.83589,7.2106373 250.89062,7 Z m 20.20703,0 c -0.0481,0.00292 -0.0964,0.00489 -0.14453,0.00781 -0.91526,0.055548 -1.83034,0.1130125 -2.74414,0.1835937 0.74614,1.285e-4 1.05217,-9.826e-4 2.16602,0.00391 1.92983,0.00734 3.85938,-0.023429 5.78906,-0.03125 0.0514,-0.055278 0.10519,-0.109419 0.1582,-0.1640625 z m 106.8125,0 c 1.00765,0.3550918 0.36892,0.2741979 1.12891,0.3691406 0.96854,0.1741488 1.91495,0.4306398 2.84765,0.7324219 0.2226,-0.3838079 0.4504,-0.7481646 0.6836,-1.1015625 z m 23.45703,0 c 0.37324,1.1296695 0.55776,2.4235972 0.61914,3.804688 1.76713,-1.6409519 3.4078,-2.9432561 4.71289,-3.3593755 V 7 Z M 208.49414,22.15625 c -0.0249,0.0098 -0.0493,0.02154 -0.0742,0.03125 -0.0808,0.549759 -0.17235,1.099388 -0.22461,1.652344 0.11638,-0.540962 0.2072,-1.1119 0.29883,-1.683594 z m 139.70898,3.486328 c -0.18166,0.324984 -0.26413,0.611196 -0.37304,0.908203 0.16478,-0.176723 0.32608,-0.344863 0.49219,-0.52539 -0.0341,-0.130835 -0.0863,-0.251255 -0.11915,-0.382813 z m -142.51562,1.65625 c -0.0148,-4.4e-4 -0.0278,0.0024 -0.0391,0.01367 -0.0336,0.03349 -0.0634,0.07077 -0.0957,0.105469 0.0606,-0.01421 0.12106,-0.02876 0.18165,-0.04297 0.003,-0.0207 0.005,-0.04133 0.008,-0.0625 -0.0188,-0.0079 -0.0382,-0.01318 -0.0547,-0.01367 z m -0.18164,0.171875 c -0.0833,0.09242 -0.16651,0.185655 -0.24414,0.283203 0.052,-0.0025 0.16186,-0.01262 0.2207,-0.01563 0.001,-0.09219 0.0101,-0.181338 0.0234,-0.267578 z m -1.47461,4.013672 c -0.008,0.05414 -0.0103,0.08333 0.002,0.07031 -7.4e-4,-0.02343 -3.5e-4,-0.04688 -0.002,-0.07031 z m 156.7832,0.730469 c -0.001,0.02276 -6.2e-4,0.04559 -0.002,0.06836 -0.0155,0.299567 0.0231,0.617027 -0.0859,0.896485 -0.0317,0.08128 -0.24432,-0.0895 -0.26172,-0.0039 -0.0427,0.209518 0.0898,0.41793 0.13477,0.626953 -0.39601,0.324973 -0.34325,0.29686 -0.0996,0.533204 1.05536,0.805745 3.37833,2.090527 2.82812,1.207031 -0.73703,-1.183502 -1.5991,-2.27517 -2.51367,-3.328125 z m -157.17773,3.388672 c 0.002,0.02486 -0.002,0.04932 0,0.07422 0.0102,0.140953 0.0666,0.561812 0.0469,0.421875 -0.0292,-0.206524 -0.0325,-0.337854 -0.0469,-0.496093 z m 8.36719,0.767578 c -0.0771,0.03111 -0.17853,0.05583 -0.25196,0.08789 0.10949,0.114366 0.22407,0.240092 0.33399,0.355469 -0.0274,-0.147722 -0.059,-0.29741 -0.082,-0.443359 z m -0.25196,0.08789 c -0.0176,-0.01841 -0.0332,-0.03243 -0.0508,-0.05078 -0.001,0.02605 -3e-5,0.05208 -0.002,0.07813 0.0197,-0.0088 0.0328,-0.01863 0.0527,-0.02734 z m -0.0508,1.847657 c 0.0127,0.234456 0.008,0.470183 0.0391,0.703125 -0.0299,1.045149 -0.0429,2.09024 -0.0898,3.134765 -0.0109,0.243954 0.15795,3.721279 -0.77539,5.140625 0.0659,0.05482 0.12717,0.117355 0.20508,0.152344 0.28966,0.130083 0.60363,0.199264 0.9082,0.289062 1.41609,0.417536 1.15514,0.28368 3.27149,0.34375 1.23174,0.03496 1.86822,0.0072 2.57617,-0.0293 -0.66361,-0.812774 -1.31439,-1.635283 -1.91016,-2.501954 -1.72105,-2.50363 -2.84193,-4.909548 -3.47266,-7.148437 -0.24144,-0.03024 -0.54285,-0.04646 -0.75195,-0.08398 z m 127.87891,1.1875 c -0.2662,0.350459 -0.57401,0.759229 -0.65235,0.845703 -0.97931,1.081076 -1.9979,2.129545 -3.08203,3.105468 -0.63868,0.574937 -1.3526,1.063573 -2.07226,1.533204 -3.23148,2.108779 -2.78693,1.830611 -5.34375,2.955078 -0.83408,0.351508 -1.66444,0.711449 -2.50196,1.054687 -2.9134,1.193971 1.35185,-0.664859 -2.98242,1.195313 -0.88896,0.381525 -1.74915,0.832447 -2.65429,1.173828 -3.94734,1.488765 -3.60752,1.317282 -6.92188,2.042969 -0.0495,0.0108 -6.39368,1.399482 -6.93164,1.505859 -1.61047,0.318453 -3.22258,0.631902 -4.8418,0.902344 -1.10898,0.18522 -2.22429,0.322603 -3.33984,0.46289 -2.8314,0.356066 -3.88013,0.47864 -4.87109,0.56836 0.51403,2.792822 -0.31388,5.909861 -2.77344,8.660156 H 399.95898 V 52.140625 c -5.18863,10.218773 -14.69813,10.409443 -18.57226,3.642578 -5.76893,4.525437 -12.14559,3.077732 -14.80078,-2.091797 -1.76744,-1.034722 -3.46413,-2.656742 -4.93164,-4.914062 -5.50625,19.843786 -35.02044,10.204114 -20.99414,-5.779297 0.0228,-0.02603 0.0308,-0.03916 0.0527,-0.06445 -0.31968,-0.919225 -0.6393,-1.838587 -0.95898,-2.757813 -0.0769,-0.302354 -0.11301,-0.446917 -0.17383,-0.68164 z m 1.99219,1.824218 c -0.28351,0.02247 -0.86345,0.42456 -0.87305,0.595703 -0.0168,0.298899 -0.0229,0.599131 0.0117,0.896485 0.004,0.03331 0.0166,0.06493 0.0234,0.09766 1.0889,-1.258541 1.11372,-1.611702 0.83789,-1.589844 z m -101.42188,1.353516 c -0.0818,0.01083 -0.18993,0.0095 -0.27344,0.01953 0.048,0.326276 0.10043,0.651855 0.14649,0.978516 0.0614,0.435409 0.0862,0.689746 0.10547,0.908203 0.0967,-0.02545 0.18905,-0.04923 0.28515,-0.07422 -0.0862,-0.611634 -0.17502,-1.222069 -0.26367,-1.832031 z m -6.32031,3.269531 c -0.62374,0.01646 -1.24821,0.04453 -1.87305,0.07813 0.0574,0.08182 0.10436,0.156216 0.16211,0.238281 0.41518,-0.07843 0.83294,-0.142228 1.24805,-0.220703 0.15482,-0.02927 0.30806,-0.06638 0.46289,-0.0957 z m -26.79883,0.439453 c -0.044,0.15893 -0.0887,0.317642 -0.13281,0.476563 0.51159,0.506047 1.11192,0.9286 1.75,1.316406 -0.0725,-0.07529 -0.14939,-0.146525 -0.21875,-0.224609 -0.0405,-0.04565 -0.0486,-0.112536 -0.0781,-0.166016 -0.0525,-0.09523 -0.10141,-0.191827 -0.16601,-0.279297 -0.28779,-0.389663 -0.69307,-0.693247 -1.06055,-0.998047 -0.0314,-0.04152 -0.0608,-0.08428 -0.0938,-0.125 z m 33.32617,0.332032 c -2.18577,0.537467 -4.37802,1.05029 -6.60937,1.470703 -0.0792,0.01492 -0.15909,0.02607 -0.23828,0.04102 0.78706,1.104242 1.48517,2.150805 2.21093,3.214844 2.23556,-1.106962 4.28566,-1.99721 5.80078,-2.279297 -0.0414,-0.10097 -0.0807,-0.203632 -0.11914,-0.30664 -0.34532,-0.682374 -0.58893,-1.582222 -1.04492,-2.140625 z m -14.53515,2.828125 c -0.96313,0.120495 -1.93121,0.203536 -2.89844,0.291015 0.52773,1.70566 1.2016,3.444604 1.87305,4.703125 0.62101,0.494328 1.20622,1.040935 1.79882,1.576172 0.13787,-0.06514 0.27008,-0.121911 0.41016,-0.189453 -0.48473,-2.068066 -0.7116,-4.304571 -1.18359,-6.380859 z m -1.02539,4.99414 c -0.37622,-0.299447 -0.76186,-0.586703 -1.17188,-0.835937 -0.79099,-0.480812 1.19461,1.417088 1.79102,2.125 0.10908,0.04831 0.2204,0.09152 0.33007,0.138672 -0.11601,-0.120629 -0.22715,-0.247938 -0.32812,-0.388672 -0.20325,-0.283294 -0.41131,-0.645812 -0.62109,-1.039063 z m 0.94921,1.427735 c 0.12822,0.133316 0.28102,0.234208 0.42579,0.345703 0.0631,-0.0291 0.12775,-0.05821 0.1914,-0.08789 -0.20554,-0.08609 -0.41234,-0.169733 -0.61719,-0.257813 z"/>
    </clipPath>
    <clipPath clipPathUnits="userSpaceOnUse" id="clipPath41458">
      <path id="path41460" style="fill:#ff0000;fill-opacity:1;fill-rule:nonzero;stroke:none" d="m 219.94141,13.904297 c 0.022,0.02272 0.0504,0.05362 0.0723,0.07617 h 3.57617 c -0.0279,-0.02553 -0.056,-0.05068 -0.084,-0.07617 z m 4.03515,0 c 0.0132,0.0253 0.0259,0.05085 0.0391,0.07617 h 42.89454 c -0.002,-0.02538 -0.002,-0.05078 -0.004,-0.07617 z"/>
    </clipPath>
    <clipPath clipPathUnits="userSpaceOnUse" id="clipPath41468">
      <path id="path41470" style="fill:#ff0000;fill-opacity:1;fill-rule:nonzero;stroke:none" d="m 219.94141,13.904297 c 0.022,0.02272 0.0504,0.05362 0.0723,0.07617 h 3.57617 c -0.0279,-0.02553 -0.056,-0.05068 -0.084,-0.07617 z m 4.03515,0 c 0.0132,0.0253 0.0259,0.05085 0.0391,0.07617 h 42.89454 c -0.002,-0.02538 -0.002,-0.05078 -0.004,-0.07617 z"/>
    </clipPath>
  </defs>
  <g id="svgg" transform="matrix(1, 0, 0, 1, 39.262585, 75.003571)">
    <path id="path0" d="m 180.833,13.668 c -4.73568,0.594038 -9.28347,2.930412 -12.15488,6.806941 -2.37943,2.926483 -5.21543,5.993251 -9.19537,6.377715 -2.79529,0.570028 -5.5223,-0.6637 -7.83867,-2.09707 -2.97558,-1.613184 -7.19905,-0.309927 -8.26271,3.033636 -0.91496,2.432151 -0.68603,6.327554 2.31138,7.121278 3.50389,0.799267 6.39194,-1.820235 9.46118,-2.963759 2.78799,-0.67449 5.67104,0.743966 7.7869,2.422124 2.40377,1.90224 3.45435,4.830681 5.50882,7.006452 4.99005,4.715246 12.85601,5.275474 19.04399,2.830027 4.70569,-1.792237 8.41949,-5.752685 9.96402,-10.539551 1.66478,-4.624674 1.80408,-10.224524 -1.18094,-14.336432 -1.78629,-2.333289 -4.11915,-4.146804 -6.96652,-4.913095 -2.71462,-0.86871 -5.65575,-0.966001 -8.4772,-0.748266 z m -32.85,0.072 c -6.21319,0.603938 -12.24476,4.34338 -15.04459,10.00057 -1.5017,3.52525 -1.86226,7.469428 -1.35589,11.254348 0.85103,4.874131 4.79415,8.87436 9.54778,10.100721 7.38582,2.025146 16.27289,-0.352008 20.65588,-6.876252 0.16945,-2.028132 -3.40727,-3.466721 -5.35565,-3.454043 -1.0051,-0.0747 -1.46094,1.193116 -2.23495,1.695904 -3.06318,3.173031 -8.3518,3.839849 -12.1561,1.683283 -3.66302,-2.245459 -3.72951,-7.258245 -2.4854,-10.919113 1.74934,-6.30241 10.43126,-9.47067 15.64909,-5.380668 1.74403,3.278422 6.18872,2.212394 8.29483,-0.09275 0.89038,-1.494126 -1.79288,-3.365149 -2.78799,-4.500361 -3.3712,-2.965168 -8.02082,-3.583684 -12.34328,-3.60867 z m 38.077,6.523 c 3.29955,0.920309 5.29821,4.34343 5.02296,7.668405 0.0707,5.109761 -3.48131,10.286928 -8.7146,11.090568 -3.53184,0.734346 -7.8684,-0.460086 -9.34386,-4.053473 -2.03729,-4.633565 0.10035,-10.183821 3.8027,-13.310576 2.07975,-1.125184 4.44306,-2.113915 6.89855,-1.723549 0.78182,0.06658 1.57542,0.115197 2.33425,0.328625 z" stroke="none" fill="#74943c" fill-rule="evenodd" clip-path="url(#clipPath41448)" transform="translate(-3.377356,1.2451608)"/>
    <path id="path3" d="m 210.217,13.958 c 0.991,0.029 2.566,0.029 3.5,0 0.935,-0.03 0.125,-0.054 -1.8,-0.054 -1.925,0 -2.69,0.024 -1.7,0.054 m 61.325,0 c 0.985,0.029 2.598,0.029 3.583,0 0.985,-0.03 0.179,-0.054 -1.792,-0.054 -1.971,0 -2.777,0.024 -1.791,0.054 m 39.99,0 c 0.981,0.029 2.631,0.029 3.667,0 1.036,-0.029 0.234,-0.054 -1.782,-0.054 -2.017,0 -2.865,0.024 -1.885,0.054 m 23.167,0 c 0.98,0.029 2.63,0.029 3.667,0 1.036,-0.029 0.234,-0.054 -1.783,-0.054 -2.016,0 -2.864,0.024 -1.884,0.054" stroke="none" fill="#549840" fill-rule="evenodd" clip-path="url(#clipPath41458)" transform="translate(22)"/>
    <path id="path4" d="m 210.217,13.958 c 0.991,0.029 2.566,0.029 3.5,0 0.935,-0.03 0.125,-0.054 -1.8,-0.054 -1.925,0 -2.69,0.024 -1.7,0.054 m 61.325,0 c 0.985,0.029 2.598,0.029 3.583,0 0.985,-0.03 0.179,-0.054 -1.792,-0.054 -1.971,0 -2.777,0.024 -1.791,0.054 m 39.99,0 c 0.981,0.029 2.631,0.029 3.667,0 1.036,-0.029 0.234,-0.054 -1.782,-0.054 -2.017,0 -2.865,0.024 -1.885,0.054 m 23.167,0 c 0.98,0.029 2.63,0.029 3.667,0 1.036,-0.029 0.234,-0.054 -1.783,-0.054 -2.016,0 -2.864,0.024 -1.884,0.054" stroke="none" fill="#549840" fill-rule="evenodd" clip-path="url(#clipPath41468)" transform="translate(22)"/>
    <g aria-label="firm" id="text3368" style="font-size:58.6667px;line-height:1.25;font-family:Montserrat;-inkscape-font-specification:Montserrat;fill:#346093">
      <path d="m 3.597418,46.490341 6.688004,-33.322685 q 0.997333,-4.9280022 4.165335,-7.7440037 3.168002,-2.8746683 8.448005,-2.8746683 1.994668,0 3.813335,0.4693336 1.818668,0.4693336 3.050668,1.4080008 L 26.770764,9.764988 q -1.584001,-1.2906674 -3.872002,-1.2906674 -2.288001,0 -3.637336,1.2906674 -1.349334,1.290667 -1.936001,3.930669 l -0.762667,3.520002 -0.352,2.992001 -5.280003,26.282681 z m -0.058667,-25.22668 1.1733339,-5.86667 H 25.538763 l -1.173334,5.86667 z" style="letter-spacing:2px" id="path75675"/>
      <path d="m 26.306732,46.490341 6.21867,-31.328017 H 39.85874 L 33.64007,46.490341 Z M 37.864072,9.9996547 q -1.994668,0 -3.226668,-1.1733339 -1.173334,-1.2320007 -1.173334,-2.9333349 0,-1.9946678 1.349334,-3.3440019 1.408,-1.349334 3.637335,-1.349334 1.936001,0 3.168002,1.1733339 1.232,1.1146673 1.232,2.7573349 0,2.1706678 -1.349334,3.5200019 -1.349334,1.349334 -3.637335,1.349334 z" style="letter-spacing:0px" id="path75677"/>
      <path d="m 43.261381,46.490341 6.21867,-31.328017 h 6.981338 l -1.760001,8.917338 -0.645334,-2.581334 q 2.170668,-3.813336 5.51467,-5.221337 3.344001,-1.466667 8.154671,-1.466667 l -1.349334,6.981337 q -0.469334,-0.117333 -0.880001,-0.117333 -0.410667,-0.05867 -0.938667,-0.05867 -4.282669,0 -7.098671,2.288001 -2.816001,2.229335 -3.754668,7.157337 l -3.109335,15.429342 z" style="font-style:italic;font-weight:600;-inkscape-font-specification:'Montserrat Semi-Bold Italic'" id="path75679"/>
      <path d="m 112.53338,14.810324 q 4.10667,0 6.864,1.642668 2.75734,1.642667 3.872,4.869336 1.11467,3.168001 0.176,7.80267 l -3.46133,17.365343 h -7.33334 l 3.46134,-17.189342 q 0.76266,-3.872003 -0.64534,-5.984004 -1.408,-2.112001 -5.104,-2.112001 -3.81334,0 -6.27734,2.229335 -2.40533,2.170668 -3.344,6.74667 l -3.285334,16.309342 h -7.333337 l 3.461335,-17.189342 q 0.762667,-3.872003 -0.645334,-5.984004 -1.408,-2.112001 -5.104002,-2.112001 -3.813336,0 -6.277337,2.229335 -2.405335,2.170668 -3.344002,6.805337 l -3.285335,16.250675 h -7.333337 l 6.21867,-31.328017 h 6.981337 l -1.701334,8.624005 -1.232001,-2.522668 q 2.170668,-3.344002 5.397336,-4.869336 3.285335,-1.584001 7.157337,-1.584001 3.050669,0 5.397337,1.056001 2.346668,0.997333 3.754668,3.109335 1.466663,2.053334 1.701333,5.104002 l -3.52,-0.762667 q 2.40533,-4.224002 6.16,-6.336003 3.81334,-2.170668 8.62401,-2.170668 z" style="font-style:italic;font-weight:600;-inkscape-font-specification:'Montserrat Semi-Bold Italic'" id="path75681"/>
    </g>
    <g aria-label="mpute" transform="scale(0.99798388,1.0020202)" id="text3368-2" style="font-size:58.7852px;line-height:1.25;font-family:Montserrat;-inkscape-font-specification:Montserrat;fill:#76923b;stroke-width:1.00202">
      <path d="m 243.26367,14.780476 q 4.11496,0 6.87786,1.645985 2.76291,1.645986 3.87983,4.879172 1.11692,3.1744 0.17635,7.818431 l -3.46832,17.400419 h -7.34815 l 3.46832,-17.224063 q 0.76421,-3.879823 -0.64663,-5.996091 -1.41085,-2.116267 -5.11432,-2.116267 -3.82103,0 -6.29001,2.233838 -2.41019,2.175052 -3.35076,6.760298 l -3.29197,16.342285 h -7.34815 l 3.46833,-17.224063 q 0.76421,-3.879823 -0.64664,-5.996091 -1.41084,-2.116267 -5.11431,-2.116267 -3.82104,0 -6.29002,2.233838 -2.41019,2.175052 -3.35075,6.819083 l -3.29198,16.2835 h -7.34815 l 6.23124,-31.391296 h 6.99543 l -1.70477,8.641424 -1.23449,-2.527764 q 2.17506,-3.350756 5.40824,-4.879171 3.29197,-1.5872 7.1718,-1.5872 3.05683,0 5.40824,1.058133 2.3514,0.999349 3.76225,3.115616 1.46963,2.057482 1.70477,5.114312 l -3.52711,-0.764208 q 2.41019,-4.232534 6.17244,-6.348801 3.82104,-2.175052 8.64143,-2.175052 z" style="font-style:italic;font-weight:600;-inkscape-font-specification:'Montserrat Semi-Bold Italic'" id="path75702"/>
      <path d="m 279.12261,46.935979 q -3.93861,0 -6.81909,-1.410845 -2.88047,-1.46963 -4.3501,-4.291319 -1.46963,-2.880475 -1.35206,-7.113009 0.11757,-5.87852 2.11627,-10.228625 1.99869,-4.350104 5.58459,-6.701512 3.64468,-2.410193 8.64143,-2.410193 3.87982,0 6.99543,1.645985 3.11562,1.587201 4.93796,4.702816 1.88113,3.05683 1.88113,7.406935 0,3.997394 -1.35206,7.34815 -1.29328,3.350756 -3.70347,5.819734 -2.41019,2.468979 -5.64338,3.879824 -3.1744,1.352059 -6.93665,1.352059 z m -21.28024,10.992832 8.52385,-42.795624 h 6.99544 l -1.41085,7.171794 -1.93991,8.347498 -1.05813,8.406284 -3.76225,18.870048 z m 20.69239,-17.282848 q 3.1744,0 5.58459,-1.46963 2.41019,-1.528415 3.82104,-4.173749 1.41084,-2.645334 1.41084,-6.113661 0,-3.644682 -2.17505,-5.760949 -2.17505,-2.116267 -6.11366,-2.116267 -3.11562,0 -5.58459,1.528415 -2.4102,1.46963 -3.82104,4.114964 -1.41085,2.645334 -1.41085,6.11366 0,3.644683 2.17505,5.76095 2.17506,2.116267 6.11367,2.116267 z" style="font-style:italic;font-weight:600;-inkscape-font-specification:'Montserrat Semi-Bold Italic'" id="path75704"/>
      <path d="m 313.92339,46.935979 q -3.93861,0 -6.7603,-1.645985 -2.76291,-1.704771 -3.93861,-4.879172 -1.1757,-3.233186 -0.23514,-7.877216 l 3.46833,-17.400419 h 7.34815 l -3.46833,17.224063 q -0.70542,3.821038 0.70542,5.99609 1.46963,2.116267 5.29067,2.116267 3.93861,0 6.58394,-2.233837 2.70412,-2.233838 3.5859,-6.819083 l 3.29197,-16.2835 h 7.28936 l -6.23123,31.391296 h -6.99543 l 1.76355,-8.93535 1.1757,2.821689 q -2.23383,3.350756 -5.64337,4.937957 -3.35076,1.5872 -7.23058,1.5872 z" style="font-style:italic;font-weight:600;-inkscape-font-specification:'Montserrat Semi-Bold Italic'" id="path75706"/>
      <path d="m 352.25132,46.935979 q -3.05683,0 -5.29067,-1.293274 -2.17505,-1.35206 -3.1744,-3.762253 -0.94057,-2.468978 -0.29393,-5.819735 l 5.58459,-27.8641835 h 7.34815 l -5.58459,27.8053985 q -0.35271,2.175053 0.47028,3.527112 0.82299,1.35206 3.11562,1.35206 1.05813,0 2.11626,-0.293926 1.11692,-0.352711 1.9987,-0.940563 l 1.29328,5.408238 q -1.64599,1.058133 -3.64469,1.46963 -1.99869,0.411496 -3.9386,0.411496 z m -10.87527,-25.689132 1.17571,-5.878519 h 20.86874 l -1.1757,5.878519 z" style="font-style:italic;font-weight:600;-inkscape-font-specification:'Montserrat Semi-Bold Italic'" id="path75708"/>
      <path d="m 380.13827,46.935979 q -4.70282,0 -8.17115,-1.704771 -3.46832,-1.763556 -5.40824,-4.820386 -1.88112,-3.115615 -1.88112,-7.289364 0,-5.349454 2.35141,-9.464417 2.3514,-4.114964 6.40758,-6.466372 4.11497,-2.410193 9.34685,-2.410193 4.40889,0 7.64208,1.645985 3.23318,1.645986 4.99674,4.761601 1.82234,3.056831 1.82234,7.34815 0,1.116919 -0.11757,2.292623 -0.11757,1.175704 -0.35271,2.175052 h -26.6297 l 0.82299,-4.879171 h 22.33838 l -2.99804,1.645985 q 0.47028,-2.998045 -0.4115,-4.996742 -0.88178,-1.998696 -2.82169,-3.05683 -1.93991,-1.058133 -4.64403,-1.058133 -3.23319,0 -5.64338,1.528415 -2.35141,1.46963 -3.64468,4.232534 -1.29328,2.704119 -1.29328,6.348801 0,3.821038 2.17506,5.87852 2.23383,2.057482 6.87786,2.057482 2.64534,0 5.05553,-0.822993 2.41019,-0.881778 3.99739,-2.410193 l 3.05683,5.114312 q -2.46897,2.175053 -5.87852,3.291972 -3.35075,1.058133 -6.99543,1.058133 z" style="font-style:italic;font-weight:600;-inkscape-font-specification:'Montserrat Semi-Bold Italic'" id="path75710"/>
      <text style="fill: rgb(148, 42, 0); font-family: Arial, sans-serif; font-size: 23px; font-weight: 700; white-space: pre;" transform="matrix(0.619296, 0, 0, 0.616801, 4.751909, 69.211388)"><tspan>Cold Chain Telematics </tspan><tspan style="fill: rgb(116, 148, 60);">|</tspan><tspan> Asset Tracking </tspan><tspan style="fill: rgb(116, 148, 60);">|</tspan><tspan> Site Monitoring</tspan></text>
    </g>
  </g>
</svg>